<mxfile host="app.diagrams.net" modified="2024-10-10T21:25:10.745Z" agent="Mozilla/5.0 (Windows NT 10.0; Win64; x64) AppleWebKit/537.36 (KHTML, like Gecko) Chrome/129.0.0.0 Safari/537.36" etag="cJhoLx57ZzuROkwe_sqe" version="24.5.3" type="device">
  <diagram name="Sayfa -1" id="6Yzow0I6oxchyKIVTVFD">
    <mxGraphModel dx="1518" dy="655" grid="1" gridSize="10" guides="1" tooltips="1" connect="1" arrows="1" fold="1" page="1" pageScale="1" pageWidth="827" pageHeight="1169" math="0" shadow="0">
      <root>
        <mxCell id="0" />
        <mxCell id="1" parent="0" />
        <mxCell id="o8wNzJRtlwuXeSail1KY-2" style="edgeStyle=orthogonalEdgeStyle;rounded=0;orthogonalLoop=1;jettySize=auto;html=1;exitX=0.5;exitY=1;exitDx=0;exitDy=0;" edge="1" parent="1" source="o8wNzJRtlwuXeSail1KY-1">
          <mxGeometry relative="1" as="geometry">
            <mxPoint x="250" y="260.24" as="targetPoint" />
          </mxGeometry>
        </mxCell>
        <mxCell id="o8wNzJRtlwuXeSail1KY-3" style="edgeStyle=orthogonalEdgeStyle;rounded=0;orthogonalLoop=1;jettySize=auto;html=1;entryX=0.5;entryY=0;entryDx=0;entryDy=0;" edge="1" parent="1" source="o8wNzJRtlwuXeSail1KY-1" target="o8wNzJRtlwuXeSail1KY-5">
          <mxGeometry relative="1" as="geometry">
            <mxPoint x="570" y="260.24" as="targetPoint" />
            <Array as="points">
              <mxPoint x="400" y="230.24" />
              <mxPoint x="540" y="230.24" />
            </Array>
          </mxGeometry>
        </mxCell>
        <mxCell id="o8wNzJRtlwuXeSail1KY-1" value="MÜDÜR" style="whiteSpace=wrap;html=1;" vertex="1" parent="1">
          <mxGeometry x="340" y="140.24" width="120" height="60" as="geometry" />
        </mxCell>
        <mxCell id="o8wNzJRtlwuXeSail1KY-6" style="edgeStyle=orthogonalEdgeStyle;rounded=0;orthogonalLoop=1;jettySize=auto;html=1;entryX=0.419;entryY=-0.004;entryDx=0;entryDy=0;entryPerimeter=0;" edge="1" parent="1">
          <mxGeometry relative="1" as="geometry">
            <mxPoint x="250.27999999999997" y="370" as="targetPoint" />
            <mxPoint x="250" y="320.24" as="sourcePoint" />
            <Array as="points">
              <mxPoint x="250" y="345.24" />
              <mxPoint x="250" y="345.24" />
            </Array>
          </mxGeometry>
        </mxCell>
        <mxCell id="o8wNzJRtlwuXeSail1KY-4" value="PROJE YÖNETİCİSİ" style="whiteSpace=wrap;html=1;" vertex="1" parent="1">
          <mxGeometry x="200" y="260" width="120" height="60" as="geometry" />
        </mxCell>
        <mxCell id="o8wNzJRtlwuXeSail1KY-5" value="MUHASEBE BİRİMİ" style="whiteSpace=wrap;html=1;" vertex="1" parent="1">
          <mxGeometry x="480" y="260.24" width="120" height="60" as="geometry" />
        </mxCell>
        <mxCell id="o8wNzJRtlwuXeSail1KY-7" value="YAZILIM DEPARTMANI" style="whiteSpace=wrap;html=1;" vertex="1" parent="1">
          <mxGeometry x="200" y="370" width="120" height="60" as="geometry" />
        </mxCell>
        <mxCell id="o8wNzJRtlwuXeSail1KY-9" style="edgeStyle=orthogonalEdgeStyle;rounded=0;orthogonalLoop=1;jettySize=auto;html=1;entryX=0.5;entryY=0;entryDx=0;entryDy=0;" edge="1" parent="1" source="o8wNzJRtlwuXeSail1KY-8" target="o8wNzJRtlwuXeSail1KY-1">
          <mxGeometry relative="1" as="geometry" />
        </mxCell>
        <mxCell id="o8wNzJRtlwuXeSail1KY-8" value="YÖNETİM KURULU" style="whiteSpace=wrap;html=1;" vertex="1" parent="1">
          <mxGeometry x="340" y="20.24" width="120" height="60" as="geometry" />
        </mxCell>
      </root>
    </mxGraphModel>
  </diagram>
</mxfile>
